Coordinates
version=1
nRows=27
nColumns=12
inDegrees=yes

Units are S.I. units (second, meters, Newtons, ...)
Angles are in degrees

endheader
time	SC_y	SC_z	SC_x	AC_y	AC_z	AC_x	GH_y	GH_z	GH_yy	EL_x	PS_y
       0.0              -36.01           10.1          65.65          60.99          6.297          19.25         -156.0          47.78          164.3          69.01          69.34
   0.04114              -36.01           10.1          65.66          60.99          6.294          19.25         -155.9          47.77          164.3          69.01          69.34
   0.08227              -36.02          10.11          65.66          60.99          6.291          19.25         -155.9          47.77          164.3          69.01          69.34
    0.1234              -36.02          10.11          65.66          60.99          6.287          19.25         -155.9          47.76          164.3          69.01          69.34
    0.1645              -36.02          10.11          65.66          60.99          6.284          19.25         -155.9          47.76          164.3           69.0          69.34
    0.2057              -36.03          10.12          65.67          60.99           6.28          19.25         -155.9          47.75          164.3           69.0          69.34
    0.2468              -36.03          10.12          65.67          60.99          6.276          19.25         -155.9          47.75          164.3           69.0          69.33
    0.2879              -36.04          10.13          65.68          60.99          6.272          19.25         -155.9          47.74          164.3          68.99          69.33
    0.3291              -36.04          10.13          65.68          60.99          6.267          19.25         -155.9          47.73          164.3          68.99          69.33
    0.3702              -36.05          10.14          65.68          60.99          6.262          19.25         -155.8          47.72          164.3          68.99          69.33
    0.4114              -36.06          10.14          65.69          60.99          6.257          19.25         -155.8          47.71          164.2          68.98          69.33
    0.4525              -36.06          10.15          65.69          60.99          6.251          19.25         -155.8          47.71          164.2          68.98          69.33
    0.4936              -36.07          10.16           65.7          60.98          6.245          19.25         -155.8           47.7          164.2          68.97          69.33
    0.5348              -36.08          10.16          65.71          60.98          6.238          19.24         -155.8          47.68          164.2          68.97          69.33
    0.5759              -36.09          10.17          65.71          60.98          6.231          19.24         -155.7          47.67          164.2          68.96          69.33
     0.617              -36.09          10.18          65.72          60.98          6.224          19.24         -155.7          47.66          164.2          68.95          69.33
    0.6582               -36.1          10.19          65.73          60.98          6.215          19.24         -155.7          47.65          164.2          68.95          69.33
    0.6993              -36.11           10.2          65.73          60.98          6.206          19.24         -155.7          47.63          164.2          68.94          69.32
    0.7404              -36.13          10.21          65.74          60.98          6.196          19.24         -155.6          47.62          164.2          68.93          69.32
    0.7816              -36.14          10.22          65.75          60.98          6.185          19.24         -155.6           47.6          164.2          68.92          69.32
    0.8227              -36.15          10.24          65.76          60.98          6.173          19.24         -155.6          47.58          164.1          68.91          69.32
    0.8638              -36.17          10.25          65.78          60.98          6.159          19.24         -155.5          47.56          164.1           68.9          69.32
     0.905              -36.19          10.27          65.79          60.98          6.145          19.24         -155.5          47.53          164.1          68.89          69.31
    0.9461               -36.2          10.29          65.81          60.98          6.128          19.24         -155.4          47.51          164.1          68.87          69.31
    0.9872              -36.23          10.31          65.82          60.97           6.11          19.24         -155.4          47.48          164.0          68.86          69.31
     1.028              -36.25          10.33          65.84          60.97           6.09          19.24         -155.3          47.45          164.0          68.84          69.31
      1.07              -36.28          10.36          65.86          60.97          6.067          19.23         -155.2          47.41          164.0          68.82           69.3
